<svg width="22" height="22" viewBox="0 0 22 22" fill="none" xmlns="http://www.w3.org/2000/svg">
<path d="M10.9375 0C4.89746 0 0 4.89746 0 10.9375C0 16.9775 4.89746 21.875 10.9375 21.875C16.9775 21.875 21.875 16.9775 21.875 10.9375C21.875 4.89746 16.9775 0 10.9375 0ZM15.0146 15.4687C14.0234 16.3818 12.6709 16.9189 11.0571 16.9189C8.7207 16.9189 6.69922 15.5786 5.71533 13.6255C5.31006 12.8174 5.07812 11.9043 5.07812 10.9375C5.07812 9.9707 5.31006 9.05762 5.71533 8.24951C6.69922 6.29395 8.7207 4.95361 11.0571 4.95361C12.6685 4.95361 14.021 5.54688 15.0586 6.51123L13.3447 8.22754C12.7246 7.63428 11.936 7.33398 11.0596 7.33398C9.50195 7.33398 8.18359 8.38623 7.7124 9.7998C7.59277 10.1587 7.52441 10.542 7.52441 10.9375C7.52441 11.333 7.59277 11.7163 7.7124 12.0752C8.18359 13.4888 9.50195 14.541 11.0571 14.541C11.8628 14.541 12.5464 14.3286 13.0811 13.9697C13.7158 13.5449 14.1357 12.9126 14.2749 12.1631H11.0571V9.84863H16.6895C16.7603 10.2417 16.7969 10.6494 16.7969 11.0718C16.7969 12.8955 16.145 14.4263 15.0146 15.4687V15.4687Z" fill="#E5E5E5"/>
</svg>
