<svg width="272" height="136" viewBox="0 0 272 136" fill="none" xmlns="http://www.w3.org/2000/svg">
<path d="M0 133.516H194.292" stroke="white" stroke-width="4"/>
<path d="M88.1798 2L270.494 2" stroke="white" stroke-width="4"/>
<path d="M26.1208 107.261C26.151 107.209 26.211 107.196 26.3007 107.222C26.9456 107.402 27.5453 107.677 28.0999 108.045C28.1752 108.096 28.2011 108.155 28.1786 108.219L27.3802 109.72C27.3505 109.777 27.2718 109.768 27.1442 109.69C27.017 109.613 26.4207 109.323 25.3565 108.819C25.2889 108.787 25.2663 108.748 25.2889 108.703L26.1208 107.261ZM31.8896 111.684C31.9496 111.491 32.0696 111.465 32.2495 111.607C32.4294 111.749 32.7216 112.03 33.1265 112.449C33.3664 112.701 33.7075 112.827 34.1499 112.827C34.4723 112.827 34.682 112.969 34.7793 113.253C34.8767 113.53 34.8883 113.827 34.8134 114.143C34.7458 114.453 34.6484 114.611 34.5207 114.618H33.8126C34.0371 116.147 33.7785 117.573 33.0368 118.896C32.1818 120.413 30.3942 121.21 27.6729 121.287C26.2935 121.326 25.1128 120.994 24.1307 120.29C23.1486 119.593 22.5901 118.738 22.4553 117.725C22.3277 116.718 22.6314 115.357 23.3659 113.64C23.3962 113.569 23.4561 113.53 23.5459 113.524C23.6361 113.517 23.7147 113.55 23.7819 113.621C23.8496 113.685 23.8606 113.766 23.816 113.863C23.3285 115.095 23.1563 115.963 23.2988 116.467C23.7786 118.228 25.1838 119.119 27.5155 119.138C30.0641 119.152 31.8709 118.548 32.9356 117.328C32.8602 115.741 32.4404 114.414 31.6762 113.35C31.5409 113.163 31.4809 113.049 31.4962 113.011L31.8896 111.684ZM36.8261 111.413C36.8784 111.246 36.9609 111.146 37.0736 111.113C37.1859 111.075 37.2982 111.107 37.4109 111.21C37.5309 111.313 37.5568 111.465 37.4896 111.665C37.4219 111.859 37.3394 112.065 37.242 112.285C39.236 112.943 40.4469 112.514 40.8739 110.997C40.919 110.829 40.9977 110.729 41.1105 110.697C41.2304 110.658 41.3427 110.687 41.4478 110.784C41.5528 110.875 41.5902 111 41.56 111.162C41.4703 111.607 41.4516 111.907 41.5039 112.062C41.6013 112.359 41.9237 112.562 42.4711 112.672C43.0257 112.775 43.4115 112.711 43.6293 112.478C43.8538 112.239 43.9925 111.704 44.0453 110.871C44.0525 110.762 44.135 110.707 44.2923 110.707C44.4574 110.707 44.5773 110.762 44.6522 110.871C45.4544 112.091 46.3204 112.743 47.2497 112.827C47.445 112.846 47.6172 113.037 47.7674 113.398C47.9099 113.721 47.9622 114.005 47.9247 114.25C47.8873 114.495 47.7861 114.618 47.621 114.618C46.3616 114.618 45.3085 113.963 44.4612 112.652C44.4089 112.562 44.371 112.565 44.349 112.662C44.2439 113.462 44.0904 114.008 43.8879 114.298C43.6854 114.589 43.4153 114.74 43.078 114.753C41.9985 114.792 41.1105 114.44 40.4129 113.698C39.9485 114.311 39.2739 114.618 38.3892 114.618C37.5121 114.618 36.8035 114.36 36.2638 113.843C35.7614 114.36 35.1804 114.618 34.5207 114.618C34.2286 114.618 33.9584 114.172 33.7114 113.282C33.6365 113.011 33.7824 112.859 34.1499 112.827C35.664 112.723 36.556 112.252 36.8261 111.413ZM46.8788 110.29C46.9162 109.884 47.1451 109.471 47.5649 109.051C47.977 108.632 48.4717 108.419 49.0489 108.413C49.6265 108.406 51.0394 108.78 53.2882 109.535C54.1129 109.813 55.1324 110.049 56.3467 110.242C57.5687 110.429 58.7945 110.487 60.0242 110.416C60.3538 110.397 60.4814 110.513 60.4061 110.765L60.0127 111.985C59.9604 112.139 59.8064 112.201 59.5516 112.168C57.7525 111.917 56.1256 111.985 54.6714 112.372C52.8871 112.914 51.478 113.427 50.4436 113.911C49.4389 114.382 48.5019 114.618 47.6321 114.618C47.5347 114.618 47.4411 114.553 47.3509 114.424C47.089 114.018 46.9762 113.653 47.0136 113.33C47.0511 113.008 47.1336 112.84 47.2612 112.827C49.4351 112.691 51.3729 112.214 53.0747 111.394C50.8259 110.387 48.903 110.113 47.3063 110.571C47.1936 110.603 47.0923 110.591 47.0026 110.532C46.9124 110.468 46.8711 110.387 46.8788 110.29ZM62.3742 101.336C62.5618 100.684 62.7604 100.668 62.97 101.288C62.97 101.288 63.48 102.911 64.4996 106.157C65.9686 110.532 66.471 113.308 66.0061 114.482C65.9461 114.63 65.8712 114.669 65.7815 114.598C65.699 114.521 65.6462 114.411 65.6237 114.269C65.4217 113.159 65.0691 111.91 64.5667 110.523C64.5442 110.465 64.1244 109.206 63.3073 106.747L62.0705 103.156C61.9879 102.911 61.9769 102.688 62.0369 102.488L62.3742 101.336ZM63.8586 98.5094C63.0564 98.6515 62.4941 98.7709 62.1717 98.8675C61.8421 98.958 61.2385 99.1839 60.3615 99.5453C60.1739 99.6164 60.0242 99.5937 59.9115 99.4776C59.6716 99.2389 59.9043 98.9097 60.6086 98.49C59.9863 98.2447 59.6116 97.9675 59.484 97.6578C59.2518 97.1221 59.3794 96.4732 59.8664 95.712C60.3538 94.9566 60.9646 94.6051 61.6996 94.6567C62.1717 94.6889 62.4265 94.9148 62.4639 95.3341C62.5018 95.7471 62.438 96.0895 62.2729 96.3604C62.1007 96.6314 61.9131 96.6603 61.7106 96.4476C61.5082 96.2345 61.2534 96.1151 60.9459 96.0895C60.6388 96.0635 60.4176 96.1378 60.2828 96.3121C60.1403 96.4864 60.1888 96.6574 60.4287 96.8251C61.0212 97.2381 61.8119 97.4575 62.8016 97.4835C62.959 97.4835 63.1874 97.4513 63.4872 97.3864C63.7871 97.322 63.9972 97.2931 64.1172 97.2993C64.2443 97.2993 64.3456 97.3414 64.4209 97.4252C64.4957 97.5025 64.5216 97.5768 64.4996 97.6479C64.312 98.177 64.0985 98.4644 63.8586 98.5094ZM89.6763 103.688C89.7065 103.637 89.7703 103.624 89.8677 103.65C90.5121 103.831 91.1118 104.105 91.6669 104.473C91.7418 104.524 91.7643 104.582 91.7341 104.647L90.9357 106.147C90.906 106.205 90.8273 106.196 90.6997 106.118C90.5797 106.041 89.9839 105.75 88.9116 105.247C88.8444 105.215 88.8257 105.176 88.8554 105.131L89.6763 103.688ZM91.6895 105.75C91.7192 105.699 91.7792 105.686 91.8689 105.712C92.5137 105.892 93.1134 106.167 93.6681 106.535C93.7506 106.586 93.777 106.644 93.7472 106.709L92.9484 108.209C92.9187 108.267 92.84 108.258 92.7123 108.18C92.6078 108.116 92.188 107.909 91.4529 107.561L90.8686 108.664C90.8383 108.722 90.7597 108.713 90.632 108.635C90.5049 108.558 89.909 108.267 88.8444 107.764C88.7767 107.732 88.758 107.693 88.7883 107.648L89.6091 106.205C89.6389 106.154 89.7027 106.141 89.8001 106.167C90.2722 106.296 90.7184 106.476 91.1382 106.709L91.6895 105.75ZM95.8271 110.997C95.8424 110.842 95.9173 110.739 96.0521 110.687C96.232 110.629 96.4306 110.733 96.648 110.997C97.6454 112.236 98.5522 112.846 99.3692 112.827C99.8193 112.814 100.063 113.188 100.1 113.95C100.123 114.395 100.003 114.618 99.7406 114.618C98.6011 114.618 97.5178 113.872 96.4906 112.382C96.386 112.227 96.3183 112.23 96.2881 112.391C96.1236 113.462 95.9772 114.156 95.8496 114.472C95.7225 114.782 95.4787 114.94 95.1189 114.947C94.2116 114.96 93.3197 114.663 92.4427 114.056C91.783 114.831 90.7597 115.147 89.3726 115.005C89.6053 116.431 89.5866 117.551 89.3165 118.364C89.1442 118.971 88.7955 119.467 88.2706 119.855C86.7113 121.023 84.8824 121.588 82.7834 121.549C80.1969 121.497 78.379 120.568 77.3297 118.761C77.0448 118.251 76.9099 117.532 76.9248 116.602C76.9474 115.679 77.217 114.602 77.7347 113.369C77.7721 113.285 77.8354 113.24 77.9256 113.233C78.023 113.227 78.1017 113.259 78.1617 113.33C78.2217 113.395 78.2365 113.466 78.2068 113.543C77.5768 115.079 77.4084 116.157 77.7006 116.777C78.428 118.306 80.0549 119.193 82.5809 119.439C83.6379 119.542 84.8075 119.368 86.0895 118.916C87.3715 118.47 88.2634 117.825 88.7657 116.98C88.8856 115.934 88.3833 114.837 87.2587 113.688C87.1316 113.546 87.075 113.417 87.0903 113.301L87.3038 111.655C87.3336 111.397 87.4425 111.362 87.6301 111.549C87.9146 111.865 88.1809 112.236 88.4284 112.662C88.6832 113.101 89.5228 113.227 90.9472 113.04C91.6669 112.949 92.1654 112.572 92.4427 111.907C92.5099 111.739 92.5665 111.549 92.6111 111.336C92.6562 111.116 92.7311 110.997 92.8361 110.978C92.9412 110.959 93.0424 110.988 93.1398 111.065C93.2372 111.136 93.2823 111.223 93.2746 111.326L93.1849 111.907C93.1696 112.152 93.2785 112.327 93.5107 112.43C94.1857 112.72 94.819 112.798 95.4111 112.662C95.5987 112.617 95.7373 112.062 95.8271 110.997ZM107.803 112.827C108.343 112.827 108.624 113.062 108.646 113.533C108.669 114.237 108.511 114.598 108.174 114.618C106.78 114.702 105.221 114.024 103.496 112.585C101.869 113.953 100.618 114.63 99.7406 114.618C99.3731 114.611 99.0847 114.36 98.8746 113.863C98.605 113.191 98.7695 112.846 99.3692 112.827C100.314 112.795 101.168 112.524 101.933 112.014C101.356 111.594 100.603 111.33 99.6729 111.22C99.5679 111.207 99.5156 111.136 99.5156 111.007C99.5079 110.594 99.8078 110.123 100.415 109.594C101.547 108.677 103.024 108.648 104.845 109.506C105.708 109.913 106.158 110.31 106.195 110.697C106.24 111.084 105.802 111.559 104.879 112.12C105.517 112.591 106.491 112.827 107.803 112.827ZM108.961 105.266C108.991 105.215 109.051 105.202 109.141 105.228C109.786 105.408 110.385 105.683 110.94 106.051C111.023 106.102 111.049 106.16 111.019 106.225L110.22 107.725C110.191 107.783 110.112 107.774 109.984 107.696C109.872 107.625 109.388 107.39 108.534 106.989L107.915 108.171C107.885 108.228 107.807 108.219 107.679 108.141C107.552 108.064 106.956 107.774 105.891 107.27C105.824 107.238 105.802 107.199 105.824 107.154L106.656 105.712C106.686 105.66 106.746 105.647 106.836 105.673C107.368 105.821 107.874 106.038 108.354 106.322L108.961 105.266ZM108.691 110.426L109.085 109.197C109.167 108.945 109.31 108.942 109.512 109.187C110.314 110.149 110.667 111.31 110.569 112.672C110.464 113.969 109.666 114.618 108.174 114.618C108.009 114.618 107.781 114.282 107.488 113.611C107.256 113.075 107.361 112.814 107.803 112.827C108.718 112.859 109.359 112.649 109.726 112.198C109.741 112.172 109.733 112.127 109.703 112.062C109.539 111.681 109.254 111.297 108.849 110.91C108.684 110.749 108.631 110.587 108.691 110.426ZM124.333 113.379L124.737 111.801C124.797 111.581 124.888 111.543 125.008 111.684C125.352 112.085 125.656 112.375 125.918 112.556C126.181 112.736 126.492 112.827 126.852 112.827C127.212 112.833 127.452 113.13 127.571 113.717C127.691 114.298 127.575 114.598 127.223 114.618C126.968 114.63 126.713 114.63 126.458 114.618C126.398 114.618 126.368 114.656 126.368 114.734C126.586 116.018 126.308 117.215 125.536 118.325C124.771 119.442 123.965 120.042 123.118 120.126C122.279 120.21 121.552 120.194 120.937 120.078C120.33 119.961 119.539 119.71 118.564 119.322C118.452 119.277 118.373 119.219 118.328 119.148C118.283 119.077 118.287 119.019 118.339 118.974C118.384 118.935 118.456 118.929 118.553 118.954C119.602 119.168 120.487 119.206 121.207 119.071C122.706 118.787 123.98 118.016 125.03 116.757C125.48 116.228 125.716 115.695 125.738 115.16C125.686 114.824 125.277 114.376 124.513 113.814C124.355 113.704 124.295 113.559 124.333 113.379ZM126.694 103.785C126.724 103.733 126.788 103.721 126.885 103.747C127.53 103.927 128.13 104.201 128.685 104.569C128.759 104.621 128.782 104.679 128.752 104.744L127.953 106.244C127.924 106.302 127.845 106.293 127.717 106.215C127.597 106.138 127.001 105.847 125.93 105.344C125.862 105.312 125.843 105.273 125.874 105.228L126.694 103.785ZM128.707 105.847C128.737 105.796 128.797 105.783 128.887 105.809C129.531 105.989 130.131 106.263 130.686 106.631C130.769 106.683 130.795 106.741 130.765 106.806L129.967 108.306C129.936 108.364 129.858 108.354 129.73 108.277C129.625 108.212 129.206 108.006 128.471 107.657L127.886 108.761C127.856 108.819 127.777 108.81 127.65 108.732C127.523 108.654 126.927 108.364 125.862 107.861C125.794 107.828 125.776 107.79 125.806 107.744L126.627 106.302C126.657 106.25 126.72 106.238 126.818 106.263C127.29 106.393 127.736 106.573 128.156 106.806L128.707 105.847ZM132.474 112.827C132.736 112.878 132.894 112.956 132.946 113.059C132.999 113.163 133.032 113.317 133.048 113.524C133.085 114.253 133.017 114.618 132.845 114.618C132.02 114.624 131.106 114.224 130.101 113.417C129.569 114.134 128.61 114.534 127.223 114.618C127.08 114.624 126.964 114.524 126.874 114.317L126.503 113.495C126.435 113.359 126.439 113.217 126.514 113.069C126.582 112.921 126.694 112.84 126.852 112.827C128.538 112.717 129.592 112.285 130.011 111.529C130.072 111.42 130.165 111.365 130.292 111.365C130.42 111.365 130.499 111.426 130.529 111.549C130.566 111.672 130.604 111.752 130.641 111.791C131.256 112.385 131.867 112.73 132.474 112.827ZM132.474 112.827C135.053 113.137 136.93 112.678 138.108 111.452C138.145 111.413 138.152 111.368 138.13 111.317C136.916 110 135.075 108.851 132.609 107.87C132.331 107.761 132.111 107.351 131.946 106.641C131.706 105.641 131.795 104.947 132.215 104.56C134.052 102.882 137.703 101.265 143.168 99.7097C143.28 99.6775 143.37 99.6614 143.438 99.6614C143.527 99.6614 143.58 99.7064 143.595 99.7969C143.603 99.8163 143.603 99.8613 143.595 99.9323L143.426 101.326C143.404 101.52 143.325 101.636 143.19 101.675C137.006 103.708 133.478 105.179 132.609 106.089C132.556 106.141 132.579 106.186 132.676 106.225C136.245 107.89 138.212 109.551 138.58 111.21C138.775 112.133 138.7 112.862 138.355 113.398C138.003 113.94 137.5 114.282 136.848 114.424C135.319 114.766 133.925 114.84 132.665 114.647C132.455 114.614 132.294 114.443 132.182 114.134C132.069 113.811 131.998 113.578 131.968 113.437C131.878 112.978 132.047 112.775 132.474 112.827ZM147.654 101.336C147.842 100.684 148.041 100.668 148.25 101.288C148.25 101.288 148.76 102.911 149.78 106.157C151.249 110.532 151.751 113.308 151.286 114.482C151.226 114.63 151.151 114.669 151.062 114.598C150.979 114.521 150.926 114.411 150.904 114.269C150.702 113.159 150.349 111.91 149.847 110.523C149.824 110.465 149.405 109.206 148.588 106.747L147.351 103.156C147.268 102.911 147.257 102.688 147.317 102.488L147.654 101.336ZM149.139 98.5094C148.337 98.6515 147.774 98.7709 147.452 98.8675C147.122 98.958 146.519 99.1839 145.642 99.5453C145.454 99.6164 145.304 99.5937 145.192 99.4776C144.952 99.2389 145.185 98.9097 145.889 98.49C145.267 98.2447 144.892 97.9675 144.764 97.6578C144.532 97.1221 144.66 96.4732 145.147 95.712C145.634 94.9566 146.245 94.6051 146.98 94.6567C147.452 94.6889 147.707 94.9148 147.744 95.3341C147.782 95.7471 147.718 96.0895 147.553 96.3604C147.381 96.6314 147.193 96.6603 146.991 96.4476C146.788 96.2345 146.534 96.1151 146.226 96.0895C145.919 96.0635 145.698 96.1378 145.563 96.3121C145.421 96.4864 145.469 96.6574 145.709 96.8251C146.301 97.2381 147.092 97.4575 148.082 97.4835C148.239 97.4835 148.468 97.4513 148.767 97.3864C149.067 97.322 149.277 97.2931 149.397 97.2993C149.525 97.2993 149.626 97.3414 149.701 97.4252C149.776 97.5025 149.802 97.5768 149.78 97.6479C149.592 98.177 149.379 98.4644 149.139 98.5094ZM170.65 112.827C170.89 112.878 171.077 113.056 171.212 113.359C171.354 113.656 171.407 113.943 171.37 114.221C171.332 114.492 171.216 114.624 171.021 114.618C170.001 114.566 169.17 113.843 168.525 112.449C168.322 112.011 168.214 111.788 168.198 111.781C168.131 111.678 168.09 111.684 168.075 111.801C167.828 112.917 167.352 113.608 166.647 113.872C165.762 114.201 164.496 114.321 162.846 114.23C161.556 114.16 161.051 113.288 161.328 111.617C161.358 111.436 161.448 111.333 161.598 111.307C161.756 111.281 161.883 111.368 161.98 111.568C162.183 111.949 162.437 112.168 162.745 112.227C164.267 112.498 165.594 112.427 166.726 112.014C167.28 111.807 167.599 111.442 167.681 110.92C167.696 110.829 167.445 110.116 166.928 108.78C166.418 107.445 166.114 106.631 166.017 106.341C165.92 106.044 165.897 105.818 165.95 105.663C166.107 105.205 166.216 104.869 166.276 104.657C166.298 104.56 166.37 104.518 166.489 104.531C166.609 104.543 166.688 104.608 166.726 104.724C167.67 107.499 168.532 109.71 169.312 111.356C169.716 112.233 170.163 112.723 170.65 112.827ZM184.043 110.804C182.686 109.81 181.115 109.887 179.331 111.036C178.446 111.61 177.813 112.223 177.43 112.875C178.6 112.914 179.953 112.72 181.49 112.294C182.472 112.017 183.342 111.594 184.099 111.026C184.181 110.962 184.163 110.888 184.043 110.804ZM176.385 114.405C176.265 114.992 176.209 115.418 176.216 115.682C176.224 115.953 176.156 116.122 176.014 116.186C175.871 116.25 175.729 116.241 175.587 116.157C175.316 115.996 175.298 115.334 175.53 114.172C175.028 114.05 174.597 113.895 174.237 113.708C173.885 113.514 173.521 113.246 173.146 112.904C172.547 113.982 171.842 114.553 171.032 114.618C170.853 114.63 170.699 114.521 170.571 114.288C170.294 113.804 170.223 113.395 170.357 113.059C170.425 112.885 170.526 112.807 170.661 112.827C171.388 112.93 172.119 112.491 172.854 111.51C172.944 111.394 173.045 111.356 173.157 111.394C173.27 111.426 173.42 111.517 173.607 111.665C174.439 112.33 175.354 112.695 176.351 112.759C177.003 111.61 177.903 110.581 179.05 109.671C180.204 108.755 181.197 108.209 182.029 108.035C182.614 107.925 183.289 108.054 184.054 108.422C184.826 108.784 185.328 109.206 185.561 109.69C185.515 110.781 185.261 111.672 184.796 112.362C185.77 112.646 186.603 112.801 187.292 112.827C187.435 112.833 187.555 112.998 187.652 113.32C187.914 114.166 187.918 114.598 187.663 114.618C186.494 114.721 184.942 114.386 183.008 113.611C180.961 114.579 178.754 114.844 176.385 114.405ZM189.249 105.847C189.279 105.796 189.339 105.783 189.429 105.809C190.073 105.989 190.673 106.263 191.228 106.631C191.31 106.683 191.337 106.741 191.306 106.806L190.508 108.306C190.478 108.364 190.4 108.354 190.272 108.277C190.16 108.206 189.676 107.97 188.822 107.571L188.203 108.751C188.173 108.81 188.094 108.8 187.967 108.722C187.84 108.645 187.244 108.354 186.179 107.851C186.111 107.819 186.089 107.78 186.111 107.735L186.944 106.293C186.974 106.241 187.033 106.228 187.124 106.254C187.656 106.402 188.162 106.618 188.642 106.902L189.249 105.847ZM192.926 112.827C193.188 112.878 193.345 112.956 193.398 113.059C193.451 113.163 193.484 113.317 193.499 113.524C193.537 114.253 193.469 114.618 193.297 114.618C192.472 114.624 191.558 114.224 190.553 113.417C190.021 114.134 189.062 114.534 187.674 114.618C187.532 114.624 187.416 114.524 187.326 114.317L186.955 113.495C186.887 113.359 186.891 113.217 186.966 113.069C187.034 112.921 187.146 112.84 187.304 112.827C188.99 112.717 190.044 112.285 190.463 111.529C190.523 111.42 190.617 111.365 190.744 111.365C190.872 111.365 190.95 111.426 190.981 111.549C191.018 111.672 191.055 111.752 191.093 111.791C191.707 112.385 192.319 112.73 192.926 112.827ZM194.061 101.878C194.091 101.827 194.151 101.814 194.242 101.839C194.886 102.02 195.486 102.294 196.041 102.662C196.123 102.714 196.149 102.772 196.119 102.837L195.321 104.337C195.291 104.395 195.212 104.386 195.085 104.308C194.972 104.237 194.489 104.002 193.634 103.601L193.016 104.783C192.986 104.84 192.907 104.831 192.78 104.753C192.652 104.676 192.056 104.386 190.992 103.882C190.924 103.85 190.902 103.811 190.924 103.766L191.756 102.323C191.786 102.272 191.846 102.259 191.936 102.285C192.468 102.433 192.975 102.649 193.454 102.933L194.061 101.878ZM194.286 106.505C194.489 106.505 194.759 106.615 195.096 106.835C196.678 107.874 197.596 109.181 197.851 110.755C197.986 111.588 197.885 112.249 197.547 112.74C196.678 113.992 195.261 114.618 193.297 114.618C193.102 114.624 192.929 114.476 192.78 114.172C192.622 113.863 192.555 113.566 192.577 113.282C192.6 112.991 192.716 112.84 192.926 112.827C194.822 112.717 196.172 112.246 196.974 111.413C196.854 111.02 196.726 110.758 196.592 110.629C196.464 110.5 196.367 110.442 196.299 110.455C196.239 110.468 196.202 110.497 196.187 110.542C196.044 111.116 195.715 111.455 195.197 111.559C193.57 111.869 192.686 111.307 192.543 109.874C192.468 109.171 192.622 108.432 193.004 107.657C193.38 106.883 193.807 106.499 194.286 106.505ZM193.96 108.654C193.608 108.668 193.451 108.922 193.488 109.419C193.496 109.49 193.514 109.529 193.544 109.535C193.859 109.613 194.174 109.632 194.489 109.594C194.803 109.555 194.995 109.474 195.062 109.352C194.613 108.874 194.245 108.642 193.96 108.654ZM199.448 101.336C199.635 100.684 199.834 100.668 200.044 101.288C200.044 101.288 200.554 102.911 201.573 106.157C203.042 110.532 203.545 113.308 203.08 114.482C203.02 114.63 202.945 114.669 202.855 114.598C202.773 114.521 202.72 114.411 202.697 114.269C202.495 113.159 202.143 111.91 201.64 110.523C201.618 110.465 201.198 109.206 200.381 106.747L199.144 103.156C199.061 102.911 199.05 102.688 199.11 102.488L199.448 101.336Z" fill="white" fill-opacity="0.44"/>
<path d="M109.192 70.0913H100.211C96.232 70.0913 93.2743 68.4056 91.3381 65.0348L84.7777 53.7164C83.4871 51.5515 82.4477 50.469 81.6589 50.469C80.8701 50.469 79.7584 51.0569 78.3247 52.2319L73.4851 56.2209C72.0506 57.4274 71.3341 58.479 71.3341 59.3756C71.3341 60.2413 71.6383 60.8909 72.2482 61.3237L83.3797 65.8696C86.4627 67.1379 88.0045 68.9317 88.0045 71.2509C88.0045 72.8588 86.8034 74.6526 84.4012 76.6322L73.3777 85.7703C71.1186 87.6259 69.1831 88.5539 67.5697 88.5539C65.6341 88.5539 63.6084 87.6413 61.4931 85.8167L43.8012 70.555C41.5064 68.576 40.3596 67.2151 40.3596 66.4729C40.3596 65.1743 41.2558 63.7825 43.0482 62.2981L53.1576 53.8553L50.6844 57.659C50.0388 58.6488 49.5728 59.4836 49.2865 60.1641C48.9994 60.8137 48.8556 61.3083 48.8556 61.6485C48.8556 62.5457 49.8777 63.8751 51.9214 65.638L66.4945 78.2556C68.9318 80.3587 70.5453 81.4097 71.3341 81.4097C71.8359 81.4097 73.1444 80.5131 75.2596 78.7193L77.9482 76.4927C78.9159 75.7196 79.4005 75.0083 79.4005 74.3587C79.4005 72.9675 78.5215 71.9005 76.7649 71.1583L66.6556 66.9366C65.6878 66.5346 64.9169 66.179 64.3428 65.8696C63.7694 65.53 63.3213 65.1743 62.9985 64.8032C62.7122 64.4321 62.5146 64.0301 62.4072 63.5967C62.3357 63.1329 62.2999 62.5766 62.2999 61.927C62.2999 60.6902 64.0923 58.5716 67.677 55.5719L90.8542 36.1812C90.3524 37.6348 90.1012 38.8413 90.1012 39.7996C90.1012 40.9438 90.8721 42.8302 92.4139 45.4594L100.588 59.5614C101.95 61.9424 103.976 63.1329 106.664 63.1329H109.192V70.0913ZM100.104 89.2498C100.104 90.0538 99.1712 91.6926 97.3072 94.1668C95.945 92.5892 94.1526 91.3987 91.93 90.5947C90.3524 90.0383 89.5636 89.2961 89.5636 88.3681C89.5636 87.6259 91.6609 85.7858 95.8555 82.8478C95.8913 83.4048 96.1419 83.9611 96.6086 84.5181C97.0745 85.1053 97.5584 85.6623 98.0602 86.1878C98.562 86.7447 99.028 87.2702 99.4582 87.7654C99.8884 88.2909 100.104 88.7855 100.104 89.2498ZM87.6817 89.2498C87.6817 90.0538 86.7497 91.6926 84.8851 94.1668C83.5229 92.5892 81.7305 91.3987 79.5079 90.5947C77.9303 90.0383 77.1415 89.2961 77.1415 88.3681C77.1415 87.6259 79.2388 85.7858 83.4334 82.8478C83.4692 83.4048 83.7204 83.9611 84.1864 84.5181C84.6524 85.1053 85.1363 85.6623 85.6381 86.1878C86.1399 86.7447 86.6059 87.2702 87.0361 87.7654C87.4663 88.2909 87.6817 88.7855 87.6817 89.2498ZM132.046 66.0091C132.046 66.7205 131.992 67.3231 131.885 67.8184C131.813 68.313 131.634 68.8076 131.347 69.3028C131.06 69.7974 130.612 70.3229 130.002 70.8798C129.429 71.4368 128.658 72.1166 127.69 72.9212L119.355 79.6937C119.14 78.8589 118.638 77.8845 117.849 76.7712C117.096 75.6579 116.2 74.6063 115.161 73.6165C114.157 72.6273 113.117 71.7919 112.041 71.112C110.966 70.4315 110.016 70.0913 109.192 70.0913H105.427V63.1329H109.03C110.321 63.1329 112.562 64.5247 115.752 67.3077L121.291 72.2253C121.9 71.514 122.205 70.8026 122.205 70.0913C122.205 69.5035 121.614 68.1586 120.431 66.0555L118.064 61.927C116.236 58.7414 115.322 56.608 115.322 55.5256C115.322 53.6392 116.2 51.8454 117.957 50.1443L124.625 44.624C124.123 46.0775 123.872 47.2835 123.872 48.2424C123.872 49.3866 124.643 51.273 126.184 53.9016L129.733 60.0251C131.275 62.7464 132.046 64.7409 132.046 66.0091ZM122.205 38.4548C122.205 39.2587 121.273 40.8975 119.409 43.3717C118.046 41.7947 116.254 40.6036 114.031 39.7996C112.454 39.2433 111.665 38.5011 111.665 37.573C111.665 36.8308 113.762 34.9907 117.957 32.0527C117.993 32.6097 118.244 33.1815 118.71 33.7693C119.176 34.3263 119.66 34.8826 120.162 35.439C120.663 35.9651 121.129 36.4906 121.56 37.0166C121.99 37.5113 122.205 37.9904 122.205 38.4548ZM164.956 62.2055C164.956 64.5865 163.54 66.9835 160.708 69.3954L138.606 88.0433C135.308 90.8269 131.096 92.2187 125.97 92.2187C124.679 92.2187 123.567 92.0637 122.635 91.7543C124.535 91.3215 126.507 90.6101 128.551 89.6203C130.594 88.662 132.781 87.2084 135.111 85.2603L151.243 71.7147C154.04 69.3645 155.438 67.4318 155.438 65.9165C155.438 65.5763 154.56 63.8906 152.803 60.86L150.437 56.7315C148.608 53.546 147.694 51.4126 147.694 50.3301C147.694 48.4437 148.573 46.6499 150.329 44.9488L156.998 39.4285C156.496 40.8821 156.245 42.088 156.245 43.047C156.245 44.1911 157.016 46.0775 158.557 48.7062L162.106 54.8297C164.006 58.1696 164.956 60.6278 164.956 62.2055ZM191.898 70.0913H175.496V32.146C175.496 30.1663 173.435 26.0379 169.312 19.7601C171.75 19.7601 175.693 17.0387 181.143 11.5958V57.7985C181.143 58.1387 181.376 58.6179 181.842 59.2366C182.308 59.8239 182.846 60.4117 183.455 60.9989C184.065 61.5868 184.692 62.0968 185.337 62.5303C185.982 62.9322 186.502 63.1329 186.896 63.1329H191.898V70.0913ZM253.631 70.0913H188.133V63.1329H236.746L234.541 59.3756H195.662C194.981 59.3756 194.318 59.2675 193.672 59.0508C193.063 58.8032 192.525 58.479 192.059 58.077C191.593 57.6744 191.216 57.1953 190.93 56.6389C190.679 56.0511 190.553 55.4015 190.553 54.6901C190.553 54.1647 192.185 52.5413 195.447 49.8195L216.849 32.0064C219.789 29.5637 221.259 27.3679 221.259 25.4198C221.259 20.7188 218.678 18.3685 213.515 18.3685C212.763 18.3685 211.938 18.4613 211.042 18.6468C210.145 18.8324 209.195 19.0797 208.192 19.389C207.224 19.6983 206.22 20.0539 205.18 20.4559C204.14 20.827 203.119 21.2136 202.115 21.6156L218.033 7.97754L223.41 17.1624C225.238 20.2859 226.153 22.9764 226.153 25.2339C226.153 28.3263 224.378 31.326 220.829 34.2331L211.794 41.6552C209.5 43.5416 208.353 44.8716 208.353 45.6447C208.353 46.758 208.532 47.5311 208.89 47.9639L209.697 49.7268C210.486 51.5206 212.117 52.4172 214.591 52.4172H239.489C240.421 52.4172 241.514 53.5768 242.769 55.8967L246.641 63.1329H253.631V70.0913ZM271.431 67.5399C269.71 69.241 267.541 70.0913 264.924 70.0913H249.867V63.1329H257.019C257.342 63.1329 257.683 63.0557 258.041 62.9008C258.4 62.7155 258.722 62.4834 259.009 62.2055C259.332 61.927 259.582 61.6331 259.762 61.3237C259.941 60.9835 260.03 60.6433 260.03 60.3036V32.146C260.03 30.1663 257.97 26.0379 253.847 19.7601C256.285 19.7601 260.228 17.0387 265.677 11.5958V60.7211C265.677 61.9579 265.749 62.9631 265.892 63.7362C266.071 64.5093 266.358 65.1274 266.753 65.5917C267.183 66.0555 267.774 66.4266 268.527 66.705C269.28 66.9835 270.248 67.2614 271.431 67.5399Z" fill="white"/>
</svg>
